<svg xmlns="http://www.w3.org/2000/svg" shape-rendering="geometricPrecision" text-rendering="geometricPrecision" image-rendering="optimizeQuality" fill-rule="evenodd" clip-rule="evenodd" viewBox="0 0 512 512"><path d="M256 512c70.67 0 134.68-28.66 181.01-74.99C483.34 390.69 512 326.68 512 256c0-70.68-28.66-134.69-74.99-181.02C390.68 28.66 326.67 0 256 0 185.32 0 121.31 28.66 74.99 74.98 28.66 121.31 0 185.32 0 256c0 70.67 28.66 134.68 74.99 181.01C121.31 483.34 185.32 512 256 512zm21.5-160.23v-43.38h67.92c7.64 0 13.91-6.27 13.91-13.91V217.5c0-7.63-6.25-13.9-13.91-13.9h-67.91v-43.41c0-16.71-19.9-25.11-31.96-14.05L133.5 242.15c-9.11 7.54-9.12 21.31-.37 29.04l112.8 94.95c12.43 10.84 31.55 1.67 31.57-14.37z"/></svg>