<svg xmlns="http://www.w3.org/2000/svg" shape-rendering="geometricPrecision" text-rendering="geometricPrecision" image-rendering="optimizeQuality" fill-rule="evenodd" clip-rule="evenodd" viewBox="0 0 512 512"><path fill-rule="nonzero" d="M512 256c0 70.67-28.66 134.68-74.99 181.01C390.68 483.34 326.67 512 256 512c-70.68 0-134.69-28.66-181.01-74.99C28.66 390.68 0 326.67 0 256c0-70.68 28.66-134.69 74.99-181.01C121.31 28.66 185.32 0 256 0c70.67 0 134.68 28.66 181.01 74.99C483.34 121.31 512 185.32 512 256zM282.73 148.92l.03 38.14h59.78c7.17 0 13.74 2.96 18.51 7.73 4.8 4.81 7.77 11.37 7.77 18.55v69.88c0 7.18-2.96 13.75-7.72 18.52-4.74 4.79-11.33 7.76-18.56 7.76h-59.78v38.17c0 8.27-3.14 15.39-8.05 20.76-2.98 3.25-6.59 5.8-10.5 7.51-3.99 1.74-8.28 2.67-12.55 2.67-7.24 0-14.65-2.54-20.78-8.17l-101.8-99.63c-1.05-.91-2.02-1.89-2.9-2.87-5.07-5.7-7.6-12.87-7.68-20.07-.05-7.12 2.31-14.29 7.09-20.06.86-1.04 1.86-2.08 3-3.12l102.89-99.11c5.99-5.23 13.11-7.57 20.11-7.58 4.5 0 8.96 1 12.98 2.84 4.07 1.87 7.76 4.57 10.65 7.9 4.57 5.31 7.47 12.24 7.51 20.18zm-27.27 51.79v-51.79c.06-.88-.27-1.69-.79-2.3-.43-.45-.92-.83-1.4-1.05-.54-.24-1.13-.38-1.68-.38-.66 0-1.45.3-2.21.96-32.13 30.95-73.64 66.89-102.83 99.05-.58.73-.86 1.61-.86 2.46 0 .76.31 1.58.9 2.26 29.91 32.96 70.22 68.67 102.72 100.48a3.5 3.5 0 0 0 2.35.91c.63 0 1.21-.11 1.67-.31.54-.23 1.01-.56 1.34-.91.48-.52.79-1.35.79-2.42v-65.46h86.07v-67.86h-86.07v-13.64zm162.27 217.02C459.1 376.34 484.7 319.15 484.7 256c0-63.16-25.6-120.35-66.97-161.73C376.34 52.9 319.15 27.29 256 27.29c-63.16 0-120.35 25.61-161.73 66.98C52.9 135.65 27.29 192.84 27.29 256c0 63.15 25.61 120.34 66.98 161.73C135.65 459.1 192.84 484.7 256 484.7c63.15 0 120.34-25.6 161.73-66.97z"/></svg>