<?xml version="1.0" encoding="utf-8"?>
<!-- Generator: Adobe Illustrator 24.1.1, SVG Export Plug-In . SVG Version: 6.00 Build 0)  -->
<svg version="1.1" id="Layer_1" xmlns="http://www.w3.org/2000/svg" xmlns:xlink="http://www.w3.org/1999/xlink" x="0px" y="0px"
	 viewBox="0 0 512 512" style="enable-background:new 0 0 512 512;" xml:space="preserve">
<g>
	<path d="M240.1,39c0,21.5-17.4,39-39,39s-39-17.4-39-39c0-21.5,17.4-39,39-39S240.1,17.4,240.1,39z"/>
	<path d="M473.3,375.4l-54.8,13.7l-21.9-102.3c-2.8-12.5-13.7-21.6-26.8-21.7H268.5l-7.4-64h125.3v-36.6H256.8l-4.7-40.9
		c-1.6-13.7-13.2-24.3-27.3-24.3l-3.3,0.2l0.1,0l-45.4,5.2l22.7,197h163.4l28.3,132l91.5-22.9L473.3,375.4z"/>
	<path d="M203.5,475.4L203.5,475.4c-75.7,0-137.1-61.4-137.1-137.1c0-57.1,34.9-106.1,84.5-126.7l0.9-0.3l-4.3-37.4
		C79.1,197.2,29.8,262.1,29.8,338.3c0,95.8,77.9,173.7,173.7,173.7c62.7,0,117.7-33.3,148.2-83.1l0.4-0.8l-11.5-53.3
		C322.4,429.7,270.5,475.5,203.5,475.4L203.5,475.4z"/>
</g>
</svg>
